<?xml version="1.0" encoding="UTF-8" standalone="no"?>
<!-- Created with Inkscape (http://www.inkscape.org/) -->

<svg
   xmlns:dc="http://purl.org/dc/elements/1.1/"
   xmlns:cc="http://creativecommons.org/ns#"
   xmlns:rdf="http://www.w3.org/1999/02/22-rdf-syntax-ns#"
   xmlns:svg="http://www.w3.org/2000/svg"
   xmlns="http://www.w3.org/2000/svg"
   xmlns:sodipodi="http://sodipodi.sourceforge.net/DTD/sodipodi-0.dtd"
   xmlns:inkscape="http://www.inkscape.org/namespaces/inkscape"
   version="1.1"
   id="svg22189"
   xml:space="preserve"
   width="800"
   height="800"
   viewBox="0 0 800 800"
   sodipodi:docname="curved-arrows-colored-lines.svg"
   inkscape:version="0.92.4 (5da689c313, 2019-01-14)"><metadata
     id="metadata22195"><rdf:RDF><cc:Work
         rdf:about=""><dc:format>image/svg+xml</dc:format><dc:type
           rdf:resource="http://purl.org/dc/dcmitype/StillImage" /><dc:title></dc:title></cc:Work></rdf:RDF></metadata><defs
     id="defs22193"><clipPath
       clipPathUnits="userSpaceOnUse"
       id="clipPath22205"><path
         d="M 0,600 H 600 V 0 H 0 Z"
         id="path22203"
         inkscape:connector-curvature="0" /></clipPath></defs><sodipodi:namedview
     pagecolor="#ffffff"
     bordercolor="#666666"
     borderopacity="1"
     objecttolerance="10"
     gridtolerance="10"
     guidetolerance="10"
     inkscape:pageopacity="0"
     inkscape:pageshadow="2"
     inkscape:window-width="1920"
     inkscape:window-height="1018"
     id="namedview22191"
     showgrid="false"
     inkscape:zoom="0.59774463"
     inkscape:cx="694.91525"
     inkscape:cy="296.61017"
     inkscape:window-x="-8"
     inkscape:window-y="-8"
     inkscape:window-maximized="1"
     inkscape:current-layer="g22197" /><g
     id="g22197"
     inkscape:groupmode="layer"
     inkscape:label="colored-abstract-arrows-publicdomainvectors.org"
     transform="matrix(1.3333333,0,0,-1.3333333,0,800)"><g
       id="g22199"><g
         id="g22201"
         clip-path="url(#clipPath22205)"><path
           d="m 600.42,439.085 c -9.692,5.462 -19.382,10.653 -28.93,15.505 -18.982,9.65 -38.703,18.604 -58.103,26.268 -21.11,8.346 -43.121,15.687 -64.981,21.458 -12.202,3.22 -24.634,6.036 -37.128,8.332 -13.701,2.519 -27.69,4.461 -41.692,5.673 -15.72,1.363 -31.649,1.833 -47.584,1.259 -18.25,-0.663 -36.808,-2.713 -55.28,-6.451 -21.974,-4.367 -43.775,-11.257 -64.858,-21.056 -25.61,-11.915 -50.534,-28.327 -73.45,-50.011 C 114.632,427.022 101.595,412.091 89.629,395.154 76.405,376.432 64.34,355.063 53.943,330.857 41.938,302.825 32.382,271.311 26.06,236.346 20.09,203.34 16.991,167.118 17.538,127.822"
           style="fill:none;stroke:#333091;stroke-width:3.03200006;stroke-linecap:butt;stroke-linejoin:miter;stroke-miterlimit:4;stroke-dasharray:none;stroke-opacity:1"
           id="path22207"
           inkscape:connector-curvature="0" /><path
           d="m 17.792,109.527 c -3.314,8.565 -8.913,19.169 -14.774,25.708 l 14.486,-5.012 14.341,5.414 c -5.677,-6.699 -10.98,-17.456 -14.053,-26.11"
           style="fill:#333091;fill-opacity:1;fill-rule:nonzero;stroke:none"
           id="path22209"
           inkscape:connector-curvature="0" /><path
           d="m 600.42,437.56 c -15.041,8.473 -30.238,16.359 -45.25,23.465 -19.637,9.29 -39.998,17.711 -59.98,24.667 -22.223,7.744 -45.41,14.198 -68.268,18.641 -12.999,2.529 -26.186,4.469 -39.324,5.688 -14.625,1.366 -29.425,1.85 -43.99,1.274 -16.571,-0.645 -33.262,-2.628 -49.581,-6.23 -19.042,-4.211 -37.88,-10.689 -55.527,-19.924 -21.277,-11.059 -41.154,-26.157 -58.288,-45.865 -21.161,-24.363 -38.278,-55.902 -48.473,-95.2"
           style="fill:none;stroke:#8c7c31;stroke-width:3.03200006;stroke-linecap:butt;stroke-linejoin:miter;stroke-miterlimit:4;stroke-dasharray:none;stroke-opacity:1"
           id="path22211"
           inkscape:connector-curvature="0" /><path
           d="m 127.145,326.366 c -0.93,9.135 -3.524,20.844 -7.447,28.7 l 12.644,-8.666 15.263,1.427 c -7.248,-4.959 -15.208,-13.93 -20.46,-21.461"
           style="fill:#8c7c31;fill-opacity:1;fill-rule:nonzero;stroke:none"
           id="path22213"
           inkscape:connector-curvature="0" /><path
           d="m 600.42,435.97 c -14.006,7.896 -28.145,15.252 -42.071,21.875 -19.28,9.201 -39.061,17.349 -58.495,24.095 -21.51,7.463 -43.904,13.652 -65.63,17.646 -12.428,2.344 -24.841,4.012 -37.095,4.953 -13.588,1.036 -27.191,1.194 -40.527,0.325 -15.099,-0.992 -30.087,-3.311 -44.45,-7.213 -16.633,-4.523 -32.647,-11.241 -47.07,-20.582 -17.468,-10.989 -32.75,-25.697 -44.84,-44.473 -14.656,-22.764 -24.592,-51.522 -27.723,-86.444 -1.852,-20.707 -1.346,-43.142 1.783,-67.136 3.46,-26.458 10.129,-54.79 20.374,-84.636 11.326,-32.989 26.964,-67.671 47.266,-103.316 6.948,-12.193 14.416,-24.458 22.411,-36.753"
           style="fill:none;stroke:#ef7e6d;stroke-width:3.03200006;stroke-linecap:butt;stroke-linejoin:miter;stroke-miterlimit:4;stroke-dasharray:none;stroke-opacity:1"
           id="path22215"
           inkscape:connector-curvature="0" /><path
           d="m 294.327,38.972 c -7.371,5.476 -17.764,11.46 -26.21,13.864 l 14.927,3.487 9.243,12.23 c -1.228,-8.696 0.024,-20.623 2.04,-29.581"
           style="fill:#ef7e6d;fill-opacity:1;fill-rule:nonzero;stroke:none"
           id="path22217"
           inkscape:connector-curvature="0" /><path
           d="m 600.42,434.307 c -9.294,5.246 -18.575,10.202 -27.71,14.796 -21.141,10.66 -43.171,20.184 -64.433,27.719 -23.694,8.416 -48.34,15.044 -71.901,18.841 -13.7,2.258 -27.247,3.56 -40.42,3.821 -14.843,0.282 -29.486,-0.755 -43.474,-3.326 -16.164,-2.984 -31.726,-8.072 -45.724,-15.666 -16.604,-9.028 -31.236,-21.697 -41.863,-38.62 -13.316,-20.441 -21.267,-46.904 -21.611,-79.423 -0.225,-19.078 2.174,-39.969 7.508,-62.484 5.885,-24.774 15.326,-51.525 28.756,-79.84 14.535,-30.924 33.433,-62.759 56.579,-94.729 25.364,-35.014 55.43,-69.654 89.638,-102.667 3.632,-3.503 7.297,-6.973 10.99,-10.409"
           style="fill:none;stroke:#30407c;stroke-width:3.03200006;stroke-linecap:butt;stroke-linejoin:miter;stroke-miterlimit:4;stroke-dasharray:none;stroke-opacity:1"
           id="path22219"
           inkscape:connector-curvature="0" /><path
           d="m 450.151,-0.142 c -8.479,3.526 -20.012,6.81 -28.79,7.094 l 13.636,7.004 6,14.106 c 0.917,-8.734 5.025,-20.001 9.154,-28.204"
           style="fill:#30407c;fill-opacity:1;fill-rule:nonzero;stroke:none"
           id="path22221"
           inkscape:connector-curvature="0" /><path
           d="m 474.029,73.509 c -28.368,23.789 -54.01,48.94 -76.608,74.615 -21.089,23.969 -39.302,48.128 -54.582,71.897 -27.343,42.573 -44.834,83.137 -53.135,119.4 -6.88,30.182 -7.001,55.779 -1.927,76.665 4.505,18.535 13.192,33.717 25.239,45.476 9.611,9.76 21.439,17.024 34.468,22.138 11.374,4.45 23.768,7.312 36.639,8.783 21.704,2.487 45.472,1.118 69.523,-3.39 20.344,-3.739 41.64,-9.738 62.359,-17.242 18.921,-6.842 38.467,-15.358 57.414,-24.873 8.917,-4.477 17.96,-9.302 27.001,-14.407"
           style="fill:none;stroke:#ec0189;stroke-width:3.03200006;stroke-linecap:butt;stroke-linejoin:miter;stroke-miterlimit:4;stroke-dasharray:none;stroke-opacity:1"
           id="path22223"
           inkscape:connector-curvature="0" /><path
           d="m 488.049,61.752 c -8.65,3.084 -20.337,5.771 -29.117,5.604 l 13.257,7.696 5.268,14.395 c 1.365,-8.675 6.047,-19.717 10.592,-27.695"
           style="fill:#ec0189;fill-opacity:1;fill-rule:nonzero;stroke:none"
           id="path22225"
           inkscape:connector-curvature="0" /><path
           d="m 558.636,79.888 c -29.222,18.521 -57.005,39.348 -82.659,61.648 -24.227,21.066 -46.214,43.132 -65.583,65.543 -35.059,40.579 -60.661,81.155 -76.042,118.704 -13.086,31.858 -17.868,59.71 -16.006,82.694 1.606,19.404 7.936,35.115 17.848,47.139 8.369,10.271 19.378,17.873 31.904,23.099 10.902,4.537 23.054,7.327 35.906,8.55 21.589,2.08 46.09,-0.28 70.497,-5.752 20.919,-4.662 43.089,-11.895 64.574,-20.736 19.956,-8.207 40.788,-18.437 60.818,-29.714 l 0.527,-0.298"
           style="fill:none;stroke:#ea1259;stroke-width:3.03200006;stroke-linecap:butt;stroke-linejoin:miter;stroke-miterlimit:4;stroke-dasharray:none;stroke-opacity:1"
           id="path22227"
           inkscape:connector-curvature="0" /><path
           d="m 574.09,70.093 c -8.983,1.911 -20.922,3.025 -29.603,1.696 l 12.12,9.384 3.314,14.967 c 2.503,-8.418 8.606,-18.742 14.169,-26.047"
           style="fill:#ea1259;fill-opacity:1;fill-rule:nonzero;stroke:none"
           id="path22229"
           inkscape:connector-curvature="0" /><path
           d="m 600.42,424.779 c -4.752,2.693 -9.495,5.281 -14.208,7.751 -17.543,9.207 -35.371,17.161 -52.346,23.283 -18.326,6.611 -36.768,11.458 -53.498,13.768 -19.272,2.674 -37.285,2.124 -51.613,-2.538 -17.6,-5.716 -30.428,-17.607 -34.122,-36.25 -5.179,-23.65 5.156,-57.664 32.873,-97.889 16.066,-23.27 36.996,-47.252 61.959,-70.382 27.105,-25.105 58.264,-48.56 91.565,-68.011"
           style="fill:none;stroke:#6a77ba;stroke-width:3.03200006;stroke-linecap:butt;stroke-linejoin:miter;stroke-miterlimit:4;stroke-dasharray:none;stroke-opacity:1"
           id="path22231"
           inkscape:connector-curvature="0" /><path
           d="m 596.829,185.282 c -9.045,1.584 -21.017,2.266 -29.644,0.621 l 11.772,9.819 2.769,15.077 c 2.805,-8.321 9.28,-18.417 15.103,-25.517"
           style="fill:#6a77ba;fill-opacity:1;fill-rule:nonzero;stroke:none"
           id="path22233"
           inkscape:connector-curvature="0" /><path
           d="m 572.922,123.588 c -13.541,8.198 -26.986,17.069 -40.22,26.54 -40.388,28.926 -76.917,62.112 -107.156,97.129 -28.029,32.347 -48.386,63.573 -61.376,91.826 -11.533,25.096 -17.244,47.818 -17.6,67.334 -0.642,31.097 12.599,52.238 33.456,63.887 16.245,9.09 37.126,12.756 59.637,11.978 18.733,-0.621 39.454,-4.314 60.063,-10.145 18.384,-5.197 37.723,-12.381 56.59,-20.869 14.472,-6.508 29.436,-14.121 44.104,-22.406"
           style="fill:none;stroke:#797a54;stroke-width:3.03200006;stroke-linecap:butt;stroke-linejoin:miter;stroke-miterlimit:4;stroke-dasharray:none;stroke-opacity:1"
           id="path22235"
           inkscape:connector-curvature="0" /><path
           d="m 588.573,114.112 c -9.019,1.726 -20.979,2.596 -29.631,1.088 l 11.926,9.631 3.006,15.032 c 2.674,-8.365 8.988,-18.56 14.699,-25.751"
           style="fill:#797a54;fill-opacity:1;fill-rule:nonzero;stroke:none"
           id="path22237"
           inkscape:connector-curvature="0" /><path
           d="m 600.42,426.875 c -1.586,0.897 -3.169,1.782 -4.748,2.655 -16.886,9.318 -34.276,17.741 -50.898,24.514 -17.737,7.278 -35.599,13.061 -52.479,16.958 -18.972,4.371 -37.738,6.583 -54.008,5.552 -19.504,-1.11 -36.825,-6.702 -48.845,-17.424 -15.121,-13.483 -22.006,-35.435 -15.694,-65.549 3.788,-18.259 12.189,-38.837 25.319,-60.941 14.531,-24.436 34.773,-50.626 60.539,-77.034 27.194,-27.973 58.559,-54.042 92.261,-76.675 10.237,-6.874 20.576,-13.357 30.953,-19.411"
           style="fill:none;stroke:#d92a9e;stroke-width:3.03200006;stroke-linecap:butt;stroke-linejoin:miter;stroke-miterlimit:4;stroke-dasharray:none;stroke-opacity:1"
           id="path22239"
           inkscape:connector-curvature="0" /><path
           d="m 598.624,150.299 c -9.047,1.58 -21.02,2.255 -29.645,0.607 l 11.767,9.823 2.762,15.079 c 2.81,-8.321 9.289,-18.412 15.116,-25.509"
           style="fill:#d92a9e;fill-opacity:1;fill-rule:nonzero;stroke:none"
           id="path22241"
           inkscape:connector-curvature="0" /><path
           d="m 600.42,440.542 c -7.14,4.021 -14.251,7.888 -21.297,11.583 -21.364,11.201 -43.601,21.608 -65.6,30.442 -24.103,9.727 -49.516,18.275 -74.882,24.916 -14.432,3.777 -29.266,7.044 -44.256,9.661 -16.761,2.917 -34.068,5.083 -51.494,6.226 -20.062,1.322 -40.725,1.391 -61.635,-0.119 -24.849,-1.8 -50.654,-5.873 -76.689,-12.887 C 172.346,501.669 139.37,488.227 107.031,468.921 86.937,456.917 67.014,442.623 47.672,425.835 41.314,420.311 34.988,414.485 28.711,408.349"
           style="fill:none;stroke:#eb2359;stroke-width:3.03200006;stroke-linecap:butt;stroke-linejoin:miter;stroke-miterlimit:4;stroke-dasharray:none;stroke-opacity:1"
           id="path22243"
           inkscape:connector-curvature="0" /><path
           d="m 15.628,395.559 c 3.923,8.302 7.751,19.667 8.452,28.42 l 6.348,-13.952 13.805,-6.663 c -8.767,-0.502 -20.216,-4.071 -28.605,-7.805"
           style="fill:#eb2359;fill-opacity:1;fill-rule:nonzero;stroke:none"
           id="path22245"
           inkscape:connector-curvature="0" /></g></g></g></svg>